# xmcd
#
# Track frame offsets: 
#        150
#        13091
#        20568
#        40621
#        70274
#        83942
#        112858
#        123062
#        131609
#        160243
#        187200
#        205901
#        224373
#        259608
#        265441
#        270792
#        287273
#        320731
#
# Disc length: 4711 seconds
#
# Revision: 3
# Processed by: cddbd v1.5.2PL0 Copyright (c) Steve Scherf et al.
# Submitted via: ExactAudioCopy v0.95b4
#
DISCID=fe126512
DTITLE=James Horner - Braveheart
DYEAR=1998
DGENRE=Soundtrack
TTITLE0=Main Title
TTITLE1=A Gift Of A Thistle
TTITLE2=Wallace Courts Murron
TTITLE3=The Secret Wedding
TTITLE4=Attack On Murron
TTITLE5=Murron's Burial
TTITLE6=Revenge
TTITLE7=Making Plans - Gathering The Clans
TTITLE8=Sons Of Scotland
TTITLE9=The Battle Of Stirling
TTITLE10=For The Love Of A Princess
TTITLE11=Falkirk
TTITLE12=Betrayal and Desolation
TTITLE13=Mornay's Dream
TTITLE14=The Legend Spreads
TTITLE15=The Princess Pleads For Wallace's Life
TTITLE16=Freedom - The Execution - Bannockburn
TTITLE17=End Credits
EXTD=YEAR: 1998
EXTT0=
EXTT1=
EXTT2=
EXTT3=
EXTT4=
EXTT5=
EXTT6=
EXTT7=
EXTT8=
EXTT9=
EXTT10=
EXTT11=
EXTT12=
EXTT13=
EXTT14=
EXTT15=
EXTT16=
EXTT17=
PLAYORDER=
